<svg xmlns="http://www.w3.org/2000/svg" width="40" height="40" viewBox="0 0 500 500">
  <defs>
    <style>
      .cls-1 {
        fill: none;
        stroke: #3eb5f1;
      }

      .cls-1, .cls-2, .cls-3, .cls-4, .cls-5 {
        stroke-width: 25px;
      }

      .cls-1, .cls-2, .cls-3 {
        fill-rule: evenodd;
      }

      .cls-2, .cls-3 {
        fill: #3c3f41;
      }

      .cls-2 {
        stroke: #fff343;
      }

      .cls-3 {
        stroke: #2e302f;
      }

      .cls-4 {
        fill: #3e86a0;
        stroke: #3e86a0;
      }

      .cls-5 {
        fill: #ad6c79;
        stroke: #ad6c79;
      }
    </style>
  </defs>
  <path id="Widdershins_1" data-name="Widdershins 1" class="cls-1" d="M401.98,400.031a205.66,205.66,0,0,0,45.525-70.152,216.406,216.406,0,0,0-.653-159.905,205.293,205.293,0,0,0-46.364-70.152,206.407,206.407,0,0,0-70.3-46.734,214.123,214.123,0,0,0-160.407,0A204.176,204.176,0,0,0,99.593,99.822q-61.455,61.764-62.1,149.27t59.5,149.813l13.4-10.819Q52.474,330.069,53.322,248.437q0.827-81.63,58.375-139.475,57.517-57.65,139.079-57T390.06,110.456q57.533,58.035,57.445,139.005T389.876,388.086A58.251,58.251,0,0,0,401.98,400.031Z"/>
  <path id="Widdershins_1_копия" data-name="Widdershins 1 копия" class="cls-2" d="M133.182,129.41c-10.055,7.815-27.212,33.845-34.993,53.922a166.338,166.338,0,0,0,.5,122.909,162.95,162.95,0,0,0,89.668,89.844,164.592,164.592,0,0,0,123.295,0,156.936,156.936,0,0,0,53.954-35.922q47.237-47.475,47.735-114.735T367.611,130.275l-10.3,8.316q44.517,44.595,43.865,107.34-0.636,62.745-44.87,107.207Q312.1,397.449,249.4,396.95T142.344,351.989Q98.123,307.382,98.189,245.144t44.3-106.553h0q-0.142,0-9.3-9.181h0Zm0,0a158.086,158.086,0,0,0-34.993,53.922,166.338,166.338,0,0,0,.5,122.909,162.95,162.95,0,0,0,89.668,89.844,164.592,164.592,0,0,0,123.295,0,156.936,156.936,0,0,0,53.954-35.922q47.237-47.475,47.735-114.735T367.611,130.275l-10.3,8.316q44.517,44.595,43.865,107.34-0.636,62.745-44.87,107.207Q312.1,397.449,249.4,396.95T142.344,351.989Q98.123,307.382,98.189,245.144t44.3-106.553h0q-0.142,0-9.3-9.181h0Z"/>
  <path id="Widdershins_1_копия_2" data-name="Widdershins 1 копия 2" class="cls-3" d="M328.283,322.424a106.276,106.276,0,0,0,23.525-36.25,111.823,111.823,0,0,0-.338-82.628,109.544,109.544,0,0,0-60.281-60.4,110.645,110.645,0,0,0-82.888,0A105.5,105.5,0,0,0,172.03,167.3q-31.756,31.916-32.091,77.133t30.745,77.413l6.925-5.59q-29.928-29.981-29.489-72.162t30.164-72.071q29.721-29.79,71.867-29.454t71.973,30.226q29.728,29.988,29.684,71.828t-29.779,71.633c0.808,1.387,2.37,2.172,3.342,3.431A24.962,24.962,0,0,1,328.283,322.424Zm0,0a106.276,106.276,0,0,0,23.525-36.25,111.823,111.823,0,0,0-.338-82.628,109.544,109.544,0,0,0-60.281-60.4,110.645,110.645,0,0,0-82.888,0A105.5,105.5,0,0,0,172.03,167.3q-31.756,31.916-32.091,77.133t30.745,77.413l6.925-5.59q-29.928-29.981-29.489-72.162t30.164-72.071q29.721-29.79,71.867-29.454t71.973,30.226q29.728,29.988,29.684,71.828t-29.779,71.633h0q0.094,0,6.254,6.172h0Z"/>
  <circle id="Эллипс_1" data-name="Эллипс 1" class="cls-4" cx="175" cy="162.5" r="37.5"/>
  <circle id="Эллипс_3_копия" data-name="Эллипс 3 копия" class="cls-5" cx="275" cy="337.5" r="25"/>
  <circle id="Эллипс_3" data-name="Эллипс 3" class="cls-5" cx="275" cy="239.5" r="25"/>
</svg>
